<?xml version="1.0" encoding="utf-8"?>
<!-- Generator: Adobe Illustrator 27.3.1, SVG Export Plug-In . SVG Version: 6.00 Build 0)  -->
<svg version="1.1" id="Layer_1" xmlns="http://www.w3.org/2000/svg" xmlns:xlink="http://www.w3.org/1999/xlink" x="0px" y="0px"
	 viewBox="0 0 207.8 35.8" style="enable-background:new 0 0 207.8 35.8;" xml:space="preserve">
<style type="text/css">
	.st0{clip-path:url(#SVGID_00000108276491329992003450000009200771353226527886_);}
	.st1{clip-path:url(#SVGID_00000022553868889093290900000014907895017063649209_);}
	.st2{clip-path:url(#SVGID_00000071545598537781508030000008708805146716246153_);}
	.st3{fill:#2E2E2E;}
	.st4{clip-path:url(#SVGID_00000157270071854691053490000014914080580869779881_);}
	.st5{clip-path:url(#SVGID_00000159434531174228646580000006875712171464674999_);}
	.st6{clip-path:url(#SVGID_00000096770242083251938920000000276503024339357846_);}
	.st7{fill:#5E3AEE;}
</style>
<g>
	<g>
		<defs>
			<rect id="SVGID_1_" x="1" y="0.4" width="34.2" height="34.2"/>
		</defs>
		<clipPath id="SVGID_00000062900885363970084300000005722389106511282584_">
			<use xlink:href="#SVGID_1_"  style="overflow:visible;"/>
		</clipPath>
		<g style="clip-path:url(#SVGID_00000062900885363970084300000005722389106511282584_);">
			<g>
				<defs>
					
						<rect id="SVGID_00000180365329456626655740000001022167039515436680_" x="0" y="-8.2" transform="matrix(0.7071 -0.7071 0.7071 0.7071 -4.517 24.6113)" width="54.9" height="51.9"/>
				</defs>
				<clipPath id="SVGID_00000113324238510663403270000008021630009921926313_">
					<use xlink:href="#SVGID_00000180365329456626655740000001022167039515436680_"  style="overflow:visible;"/>
				</clipPath>
				<g style="clip-path:url(#SVGID_00000113324238510663403270000008021630009921926313_);">
					<g>
						<defs>
							
								<rect id="SVGID_00000005257456467257967600000015730188118201179799_" x="0" y="-8.2" transform="matrix(0.7071 -0.7071 0.7071 0.7071 -4.517 24.6113)" width="54.9" height="51.9"/>
						</defs>
						<clipPath id="SVGID_00000067953279006609698090000010013648788814806418_">
							<use xlink:href="#SVGID_00000005257456467257967600000015730188118201179799_"  style="overflow:visible;"/>
						</clipPath>
						<g style="clip-path:url(#SVGID_00000067953279006609698090000010013648788814806418_);">
							<path class="st3" d="M28.4,22.7c0,1.4-0.6,2.8-1.6,3.8c-1,1-2.3,1.6-3.8,1.6H8c-0.2,0-0.4-0.1-0.5-0.2
								c-0.1-0.1-0.2-0.3-0.2-0.5v-15c0-1.5,0.6-2.8,1.6-3.8c1-1,2.3-1.6,3.8-1.6h6.6l6.3-6.3H12.6c-3.1,0-6,1.2-8.2,3.4
								C2.3,6.3,1,9.2,1,12.3v15c0,1.9,0.7,3.6,2,4.9s3.1,2,4.9,2h15c3.1,0,6-1.2,8.2-3.4c2.2-2.2,3.4-5.1,3.4-8.2V9.8L28.4,16V22.7
								"/>
						</g>
					</g>
				</g>
			</g>
		</g>
	</g>
	<g>
		<defs>
			<rect id="SVGID_00000122679437953826581180000014009043757217377940_" x="19.8" y="1.2" width="34.2" height="34.2"/>
		</defs>
		<clipPath id="SVGID_00000170999187346376679440000012438712069774839443_">
			<use xlink:href="#SVGID_00000122679437953826581180000014009043757217377940_"  style="overflow:visible;"/>
		</clipPath>
		<g style="clip-path:url(#SVGID_00000170999187346376679440000012438712069774839443_);">
			<g>
				<defs>
					
						<rect id="SVGID_00000141445619200627421140000017955827498792087194_" x="0" y="-8.2" transform="matrix(0.7071 -0.7071 0.7071 0.7071 -4.517 24.6113)" width="54.9" height="51.9"/>
				</defs>
				<clipPath id="SVGID_00000008845566053837515060000014642214304527422105_">
					<use xlink:href="#SVGID_00000141445619200627421140000017955827498792087194_"  style="overflow:visible;"/>
				</clipPath>
				<g style="clip-path:url(#SVGID_00000008845566053837515060000014642214304527422105_);">
					<g>
						<defs>
							
								<rect id="SVGID_00000059295636698796579780000011336542442806877312_" x="0" y="-8.2" transform="matrix(0.7071 -0.7071 0.7071 0.7071 -4.517 24.6113)" width="54.9" height="51.9"/>
						</defs>
						<clipPath id="SVGID_00000145772151033230148550000005997632468706136510_">
							<use xlink:href="#SVGID_00000059295636698796579780000011336542442806877312_"  style="overflow:visible;"/>
						</clipPath>
						<g style="clip-path:url(#SVGID_00000145772151033230148550000005997632468706136510_);">
							<path class="st7" d="M51.8,3.5c-1.3-1.3-3.1-2-4.9-2h-15c-3.1,0-6,1.2-8.2,3.4c-2.2,2.2-3.4,5.1-3.4,8.2V26l6.3-6.3v-6.6
								c0-1.5,0.6-2.8,1.6-3.8c1-1,2.3-1.6,3.8-1.6h15c0.2,0,0.4,0.1,0.5,0.2c0.1,0.1,0.2,0.3,0.2,0.5v15c0,1.4-0.6,2.8-1.6,3.8
								c-1,1-2.3,1.6-3.8,1.6h-6.6l-6.3,6.3h12.9c3.1,0,6-1.2,8.2-3.4c2.2-2.2,3.4-5.1,3.4-8.2v-15C53.8,6.6,53.1,4.9,51.8,3.5"/>
						</g>
					</g>
				</g>
			</g>
		</g>
	</g>
	<g>
		<g transform="translate(139.193725, 195.374987)">
			<g>
				<path class="st3" d="M-55-171.1l-2.8-18.2h-4l-5,11.2l-5-11.2h-3.9l-2.9,18.2h4l1.8-11.9l5.4,11.9h1l5.4-11.9l1.8,11.9H-55z"/>
			</g>
		</g>
	</g>
	<g>
		<g transform="translate(170.408891, 195.374987)">
			<g>
				<path class="st3" d="M-79.2-174.7v-3.8h6.3v-3.6h-6.3v-3.6h7v-3.7h-10.9v18.2h11.2v-3.7H-79.2z"/>
			</g>
		</g>
	</g>
	<g>
		<g transform="translate(188.305584, 195.374987)">
			<g>
				<path class="st3" d="M-76.4-171.1h4.4l-4-6.9c2-1,3.3-2.9,3.3-5.3c0-3.5-2.7-6-6.4-6h-7.4v18.2h3.9v-6.2h2.5L-76.4-171.1z
					 M-82.5-185.7h3.2c1.7,0,2.6,1,2.6,2.4c0,1.4-1,2.4-2.6,2.4h-3.2V-185.7z"/>
			</g>
		</g>
	</g>
	<g>
		<g transform="translate(209.467872, 195.374987)">
			<g>
				<path class="st3" d="M-90.4-171.1h3.9v-18.2h-3.9V-171.1z"/>
			</g>
		</g>
	</g>
	<g>
		<g transform="translate(219.456732, 195.374987)">
			<g>
				<path class="st3" d="M-79.7-189.3h-14.1v3.7h5.1v14.6h3.9v-14.6h5.1V-189.3z"/>
			</g>
		</g>
	</g>
	<g>
		<g transform="translate(238.153825, 195.374987)">
			<g>
				<path class="st3" d="M-73.4-171.1l-2.8-18.2h-4l-5,11.2l-5-11.2H-94l-2.9,18.2h4l1.8-11.9l5.4,11.9h1l5.4-11.9l1.8,11.9H-73.4z"
					/>
			</g>
		</g>
	</g>
	<g>
		<g transform="translate(269.368991, 195.374987)">
			<g>
				<path class="st3" d="M-101.5-171.1h3.9v-18.2h-3.9V-171.1z"/>
			</g>
		</g>
	</g>
	<g>
		<g transform="translate(279.357851, 195.374987)">
			<g>
				<path class="st3" d="M-91.8-189.3v11.1l-8-11.1h-3.5v18.2h3.9v-11.4l8.3,11.4h3.3v-18.2H-91.8z"/>
			</g>
		</g>
	</g>
	<g>
		<g transform="translate(303.433553, 195.374987)">
			<g>
				<path class="st3" d="M-103.9-174.7v-3.8h6.3v-3.6h-6.3v-3.6h7v-3.7h-10.9v18.2h11.2v-3.7H-103.9z"/>
			</g>
		</g>
	</g>
</g>
</svg>
