<svg width="40" height="40" viewBox="0 0 40 40" fill="none" xmlns="http://www.w3.org/2000/svg">
<path d="M19.9999 3.3335C20.6249 3.3335 21.2416 3.36683 21.8499 3.43516C22.0675 3.45924 22.2782 3.52593 22.4699 3.63143C22.6617 3.73693 22.8309 3.87917 22.9677 4.05003C23.1045 4.22089 23.2063 4.41702 23.2673 4.62723C23.3283 4.83744 23.3473 5.05761 23.3233 5.27516C23.2992 5.49272 23.2325 5.7034 23.127 5.89519C23.0215 6.08697 22.8792 6.25609 22.7084 6.39291C22.5375 6.52972 22.3414 6.63154 22.1312 6.69255C21.921 6.75356 21.7008 6.77257 21.4833 6.7485C18.7367 6.44124 15.9625 6.99506 13.5444 8.33337C11.1263 9.67167 9.18384 11.7283 7.9857 14.2188C6.78755 16.7093 6.39292 19.5106 6.8564 22.2352C7.31989 24.9598 8.61857 27.473 10.5728 29.4273C12.5271 31.3815 15.0403 32.6802 17.7649 33.1437C20.4895 33.6072 23.2908 33.2125 25.7813 32.0144C28.2718 30.8162 30.3284 28.8738 31.6667 26.4557C33.005 24.0376 33.5588 21.2634 33.2516 18.5168C33.2275 18.2993 33.2465 18.0791 33.3075 17.8689C33.3685 17.6587 33.4704 17.4626 33.6072 17.2917C33.8835 16.9466 34.2855 16.7255 34.7249 16.6768C35.1643 16.6282 35.605 16.7561 35.9501 17.0324C36.1209 17.1692 36.2632 17.3384 36.3687 17.5301C36.4742 17.7219 36.5408 17.9326 36.5649 18.1502C36.6316 18.7585 36.6666 19.3752 36.6666 20.0002C36.6666 29.2052 29.2049 36.6668 19.9999 36.6668C10.7949 36.6668 3.33325 29.2052 3.33325 20.0002C3.33325 10.7952 10.7949 3.3335 19.9999 3.3335ZM19.9466 13.1285C20.0564 13.5564 19.9919 14.0103 19.7672 14.3907C19.5425 14.771 19.176 15.0466 18.7483 15.1568C17.573 15.4647 16.55 16.1896 15.87 17.1963C15.19 18.2031 14.8995 19.4228 15.0528 20.628C15.206 21.8332 15.7925 22.9414 16.7028 23.7459C17.6131 24.5504 18.7851 24.9962 19.9999 25.0002C21.1086 25.0001 22.1859 24.6317 23.0625 23.953C23.9392 23.2742 24.5655 22.3235 24.8433 21.2502C24.9614 20.8308 25.2391 20.4743 25.6168 20.2571C25.9946 20.04 26.4424 19.9794 26.8643 20.0883C27.2861 20.1973 27.6486 20.4671 27.8739 20.84C28.0993 21.213 28.1696 21.6593 28.0699 22.0835C27.5586 24.0434 26.3513 25.7501 24.6735 26.8848C22.9957 28.0195 20.9622 28.5045 18.9529 28.2493C16.9435 27.9941 15.0958 27.0161 13.7549 25.4981C12.414 23.98 11.6717 22.0256 11.6666 20.0002C11.6669 18.1526 12.2809 16.3575 13.4121 14.8968C14.5434 13.4361 16.1279 12.3926 17.9166 11.9302C18.1286 11.8755 18.3492 11.8632 18.566 11.8938C18.7827 11.9245 18.9913 11.9976 19.1798 12.1088C19.3683 12.2201 19.5331 12.3674 19.6646 12.5424C19.7962 12.7173 19.892 12.9165 19.9466 13.1285ZM30.8399 3.54516C31.1441 3.67129 31.4042 3.88472 31.5872 4.15851C31.7702 4.4323 31.868 4.75417 31.8683 5.0835V8.1335H34.9166C35.2462 8.13357 35.5683 8.23135 35.8424 8.41449C36.1164 8.59763 36.3299 8.85791 36.456 9.16241C36.5822 9.4669 36.6152 9.80196 36.5509 10.1252C36.4866 10.4485 36.3279 10.7454 36.0949 10.9785L30.1999 16.8668C29.8874 17.1794 29.4636 17.3551 29.0216 17.3552H24.9999L21.9533 20.4035C21.6405 20.7162 21.2164 20.8919 20.7741 20.8919C20.3318 20.8919 19.9077 20.7162 19.5949 20.4035C19.2822 20.0908 19.1065 19.6666 19.1065 19.2243C19.1065 18.7821 19.2822 18.3579 19.5949 18.0452L22.6433 15.0002V10.9768C22.6433 10.5348 22.819 10.111 23.1316 9.7985L29.0233 3.90516C29.2563 3.67194 29.5533 3.51309 29.8767 3.44872C30.2001 3.38434 30.5353 3.41732 30.8399 3.5435M28.5349 9.10516L25.9766 11.6668V14.0235H28.3333L30.8932 11.4652H30.2016C29.7596 11.4652 29.3356 11.2896 29.0231 10.977C28.7105 10.6644 28.5349 10.2405 28.5349 9.7985V9.10516Z" fill="#5E3AEE"/>
</svg>
