<svg width="20" height="20" viewBox="0 0 20 20" fill="none" xmlns="http://www.w3.org/2000/svg">
<path d="M7.21438 19C6.75137 19 6.31663 18.7531 6.07174 18.34C4.97471 16.4915 3.44789 15.0301 1.77235 14.2242C1.10213 13.9019 0.813126 13.0817 1.12642 12.3921C1.43972 11.7025 2.23684 11.4051 2.90705 11.7274C4.36646 12.4293 5.694 13.4647 6.8292 14.7751C9.09515 9.20261 12.6029 4.46561 16.8715 1.26442C17.4694 0.816067 18.3071 0.951745 18.7429 1.56638C19.1786 2.18152 19.0473 3.04353 18.4494 3.49188C14.0221 6.81192 10.4827 11.9866 8.48343 18.0635C8.31686 18.5705 7.88013 18.9322 7.36309 18.9913C7.31352 18.9969 7.26395 19 7.21438 19Z" fill="#00CF86"/>
</svg>
