<svg width="40" height="40" viewBox="0 0 40 40" fill="none" xmlns="http://www.w3.org/2000/svg">
<path d="M14.3333 35H20M20 35H25.6667M20 35V29.375M20 29.375H33.2222C34.2242 29.375 35.185 28.9799 35.8935 28.2766C36.602 27.5734 37 26.6196 37 25.625V8.75C37 7.75544 36.602 6.80161 35.8935 6.09835C35.185 5.39509 34.2242 5 33.2222 5H6.77778C5.77585 5 4.81496 5.39509 4.10649 6.09835C3.39801 6.80161 3 7.75544 3 8.75V25.625C3 26.6196 3.39801 27.5734 4.10649 28.2766C4.81496 28.9799 5.77585 29.375 6.77778 29.375H20Z" stroke="#5E3AEE" stroke-width="2.5" stroke-linecap="round" stroke-linejoin="round"/>
</svg>
