<svg width="40" height="40" viewBox="0 0 40 40" fill="none" xmlns="http://www.w3.org/2000/svg">
<g clip-path="url(#clip0_756_450)">
<path fill-rule="evenodd" clip-rule="evenodd" d="M20 8.33337C17.7639 8.33394 15.575 8.97715 13.694 10.1864C11.813 11.3956 10.3192 13.12 9.39036 15.1541C8.46154 17.1882 8.13687 19.4464 8.45501 21.6599C8.77315 23.8733 9.72069 25.9486 11.1848 27.6388C12.6489 29.329 14.5679 30.5628 16.7134 31.1933C18.8588 31.8238 21.1402 31.8245 23.286 31.1953C25.4318 30.566 27.3515 29.3333 28.8167 27.644C30.2818 25.9547 31.2306 23.8799 31.55 21.6667H21.6667C21.2246 21.6667 20.8007 21.4911 20.4882 21.1785C20.1756 20.866 20 20.4421 20 20C20 19.558 20.1756 19.1341 20.4882 18.8215C20.8007 18.509 21.2246 18.3334 21.6667 18.3334H33.3333C33.7754 18.3334 34.1993 18.509 34.5119 18.8215C34.8244 19.1341 35 19.558 35 20C35.0003 23.4686 33.7986 26.8301 31.5993 29.5123C29.4 32.1945 26.3392 34.0317 22.9378 34.711C19.5364 35.3903 16.0047 34.8699 12.9438 33.2382C9.883 31.6065 7.48223 28.9645 6.15019 25.7619C4.81816 22.5593 4.63719 18.9941 5.63809 15.673C6.639 12.352 8.75992 9.48049 11.6398 7.54729C14.5197 5.61409 17.9806 4.73869 21.4333 5.07012C24.886 5.40154 28.1171 6.9193 30.5767 9.36504C30.8813 9.67849 31.0506 10.0991 31.048 10.5361C31.0455 10.9732 30.8714 11.3918 30.5632 11.7017C30.2551 12.0117 29.8375 12.1881 29.4004 12.1931C28.9634 12.1981 28.5418 12.0312 28.2267 11.7284C27.1456 10.6499 25.8626 9.79497 24.4511 9.21245C23.0395 8.62992 21.527 8.33121 20 8.33337Z" fill="#5E3AEE" stroke="#5E3AEE" stroke-width="0.5"/>
</g>
<defs>
<clipPath id="clip0_756_450">
<rect width="40" height="40" fill="white"/>
</clipPath>
</defs>
</svg>
