<svg width="40" height="40" viewBox="0 0 40 40" fill="none" xmlns="http://www.w3.org/2000/svg">
<path fill-rule="evenodd" clip-rule="evenodd" d="M19.9999 2.0835C17.9003 2.0835 15.8867 2.91757 14.402 4.40223C12.9173 5.8869 12.0833 7.90053 12.0833 10.0002C12.0833 12.0998 12.9173 14.1134 14.402 15.5981C15.8867 17.0828 17.9003 17.9168 19.9999 17.9168C22.0996 17.9168 24.1132 17.0828 25.5979 15.5981C27.0825 14.1134 27.9166 12.0998 27.9166 10.0002C27.9166 7.90053 27.0825 5.8869 25.5979 4.40223C24.1132 2.91757 22.0996 2.0835 19.9999 2.0835ZM14.5833 10.0002C14.5833 8.56357 15.1539 7.18582 16.1698 6.17C17.1856 5.15418 18.5633 4.5835 19.9999 4.5835C21.4365 4.5835 22.8143 5.15418 23.8301 6.17C24.8459 7.18582 25.4166 8.56357 25.4166 10.0002C25.4166 11.4368 24.8459 12.8145 23.8301 13.8303C22.8143 14.8461 21.4365 15.4168 19.9999 15.4168C18.5633 15.4168 17.1856 14.8461 16.1698 13.8303C15.1539 12.8145 14.5833 11.4368 14.5833 10.0002ZM19.9999 20.4168C16.1449 20.4168 12.5916 21.2935 9.95993 22.7735C7.3666 24.2335 5.4166 26.4435 5.4166 29.1668V29.3368C5.41493 31.2735 5.41326 33.7035 7.54493 35.4402C8.59326 36.2935 10.0616 36.9018 12.0449 37.3018C14.0316 37.7052 16.6233 37.9168 19.9999 37.9168C23.3766 37.9168 25.9666 37.7052 27.9566 37.3018C29.9399 36.9018 31.4066 36.2935 32.4566 35.4402C34.5883 33.7035 34.5849 31.2735 34.5833 29.3368V29.1668C34.5833 26.4435 32.6333 24.2335 30.0416 22.7735C27.4083 21.2935 23.8566 20.4168 19.9999 20.4168ZM7.9166 29.1668C7.9166 27.7485 8.95326 26.2085 11.1849 24.9535C13.3783 23.7202 16.4916 22.9168 20.0016 22.9168C23.5083 22.9168 26.6216 23.7202 28.8149 24.9535C31.0483 26.2085 32.0833 27.7485 32.0833 29.1668C32.0833 31.3468 32.0166 32.5735 30.8766 33.5002C30.2599 34.0035 29.2266 34.4952 27.4599 34.8518C25.6983 35.2085 23.2899 35.4168 19.9999 35.4168C16.7099 35.4168 14.2999 35.2085 12.5399 34.8518C10.7733 34.4952 9.73993 34.0035 9.12326 33.5018C7.98326 32.5735 7.9166 31.3468 7.9166 29.1668Z" fill="#5E3AEE"/>
</svg>
