<svg width="40" height="40" viewBox="0 0 40 40" fill="none" xmlns="http://www.w3.org/2000/svg">
<path d="M6.66663 6.66683V33.3335C6.66663 34.2176 7.01782 35.0654 7.64294 35.6905C8.26806 36.3156 9.1159 36.6668 9.99996 36.6668H30C30.884 36.6668 31.7319 36.3156 32.357 35.6905C32.9821 35.0654 33.3333 34.2176 33.3333 33.3335V13.9035C33.3332 13.4594 33.2445 13.0198 33.0722 12.6106C32.8999 12.2013 32.6475 11.8306 32.33 11.5202L24.93 4.2835C24.3072 3.67459 23.4709 3.3336 22.6 3.3335H9.99996C9.1159 3.3335 8.26806 3.68469 7.64294 4.30981C7.01782 4.93493 6.66663 5.78277 6.66663 6.66683Z" stroke="#5E3AEE" stroke-width="2.5" stroke-linecap="round" stroke-linejoin="round"/>
<path d="M23.3333 3.3335V10.0002C23.3333 10.8842 23.6844 11.7321 24.3096 12.3572C24.9347 12.9823 25.7825 13.3335 26.6666 13.3335H33.3333" stroke="#5E3AEE" stroke-width="2.5" stroke-linejoin="round"/>
<path d="M23.3571 24.7472C21.9754 23.8778 20.9356 22.5564 20.4135 21.0067C20.8973 19.557 21.0433 18.0153 20.8404 16.5001C20.7756 16.1184 20.59 15.7678 20.311 15.5001C20.032 15.2324 19.6744 15.0619 19.2913 15.0139C18.9081 14.9659 18.5197 15.0429 18.1836 15.2334C17.8474 15.424 17.5814 15.718 17.4249 16.072C17.1691 17.8936 17.362 19.7503 17.9867 21.4799C17.1333 23.4792 16.1808 25.4345 15.133 27.3385C13.5376 28.2398 11.3579 29.5918 11.0209 31.1465C10.7512 32.4084 13.1106 35.6531 17.1328 28.6229C18.9213 27.9571 20.7532 27.415 22.6156 27.0005C23.9923 27.7898 25.528 28.2595 27.1097 28.375C27.4728 28.3844 27.8307 28.286 28.1382 28.0921C28.4458 27.8982 28.6893 27.6174 28.8382 27.2851C28.987 26.9528 29.0346 26.5838 28.975 26.2245C28.9153 25.8651 28.751 25.5315 28.5028 25.2654C27.5591 24.2965 24.7503 24.5669 23.3571 24.7472ZM12.6163 31.5071C13.246 30.4265 14.0776 29.4778 15.0655 28.713C13.5376 31.1465 12.6163 31.5747 12.6163 31.5296V31.5071ZM19.1776 16.1621C19.7618 16.1621 19.7169 18.7534 19.3124 19.452C19.0078 18.3893 18.9615 17.2689 19.1776 16.1847V16.1621ZM17.2227 27.1582C17.984 25.7653 18.6448 24.3195 19.2001 22.8319C19.7954 23.9427 20.6232 24.9112 21.6269 25.671C20.1193 26.0497 18.646 26.5547 17.2227 27.1807V27.1582ZM27.7838 26.7526C27.7838 26.7526 27.3793 27.2483 24.7952 26.1217C27.604 25.9414 28.0759 26.5949 27.7838 26.7752V26.7526Z" fill="#5E3AEE"/>
</svg>
