<svg width="50" height="50" viewBox="0 0 50 50" fill="none" xmlns="http://www.w3.org/2000/svg">
<path d="M8.6399 37.4139C6.27155 35.0143 5 32.3229 5 27.9601C5 20.283 10.6495 13.4021 18.8652 10L20.9185 13.0226C13.2501 16.9796 11.7509 22.1145 11.1531 25.352C12.3879 24.7423 14.0043 24.5295 15.5886 24.6699C19.7366 25.0362 23.0063 28.2847 23.0063 32.3229C23.0063 34.359 22.1585 36.3117 20.6492 37.7514C19.1399 39.1912 17.093 40 14.9586 40C13.7782 39.9902 12.6117 39.7564 11.5269 39.3125C10.4421 38.8685 9.46074 38.2231 8.6399 37.4139ZM31.6336 37.4139C29.2652 35.0143 27.9937 32.3229 27.9937 27.9601C27.9937 20.283 33.6432 13.4021 41.8588 10L43.9122 13.0226C36.2438 16.9796 34.7446 22.1145 34.1468 25.352C35.3815 24.7423 36.998 24.5295 38.5822 24.6699C42.7303 25.0362 46 28.2847 46 32.3229C46 34.359 45.1521 36.3117 43.6429 37.7514C42.1336 39.1912 40.0866 40 37.9522 40C36.7719 39.9902 35.6053 39.7564 34.5206 39.3125C33.4358 38.8685 32.4544 38.2231 31.6336 37.4139Z" stroke="black" stroke-width="2.5" stroke-linejoin="round"/>
</svg>
