<?xml version="1.0" encoding="utf-8"?>
<!-- Generator: Adobe Illustrator 27.3.1, SVG Export Plug-In . SVG Version: 6.00 Build 0)  -->
<svg version="1.1" id="Layer_1" xmlns="http://www.w3.org/2000/svg" xmlns:xlink="http://www.w3.org/1999/xlink" x="0px" y="0px"
	 viewBox="0 0 20 20" style="enable-background:new 0 0 20 20;" xml:space="preserve">
<style type="text/css">
	.st0{clip-path:url(#SVGID_00000137123821269005426100000001245278241912558250_);}
	.st1{fill:#FABB05;}
	.st2{fill:#C1C1C1;}
</style>
<g>
	<defs>
		<rect id="SVGID_1_" width="20" height="20"/>
	</defs>
	<clipPath id="SVGID_00000089545916043390082570000000981022898536567171_">
		<use xlink:href="#SVGID_1_"  style="overflow:visible;"/>
	</clipPath>
	<g style="clip-path:url(#SVGID_00000089545916043390082570000000981022898536567171_);">
		<path class="st1" d="M8.9,1.2L6.7,6.4L1.1,6.9c-1,0.1-1.4,1.4-0.7,2l4.3,3.7l-1.3,5.5c-0.2,1,0.9,1.8,1.7,1.3l4.8-2.9V0.5
			C9.6,0.5,9.1,0.7,8.9,1.2z"/>
		<path class="st2" d="M16.6,18.1l-1.3-5.5l4.3-3.7c0.8-0.7,0.4-2-0.7-2l-5.6-0.5l-2.2-5.2c-0.2-0.5-0.6-0.7-1.1-0.7v15.9l4.8,2.9
			C15.7,19.9,16.8,19.1,16.6,18.1z"/>
	</g>
</g>
</svg>
