<svg width="40" height="40" viewBox="0 0 40 40" fill="none" xmlns="http://www.w3.org/2000/svg">
<mask id="path-1-inside-1_748_422" fill="white">
<path d="M34.9999 10.0002C34.5579 10.0002 34.134 10.1758 33.8214 10.4883C33.5088 10.8009 33.3333 11.2248 33.3333 11.6668V28.3335C33.3333 29.6596 32.8065 30.9313 31.8688 31.869C30.9311 32.8067 29.6593 33.3335 28.3333 33.3335H11.6666C11.2246 33.3335 10.8006 33.5091 10.4881 33.8216C10.1755 34.1342 9.99992 34.5581 9.99992 35.0002C9.99992 35.4422 10.1755 35.8661 10.4881 36.1787C10.8006 36.4912 11.2246 36.6668 11.6666 36.6668H28.3333C30.5434 36.6668 32.663 35.7889 34.2258 34.2261C35.7886 32.6632 36.6666 30.5436 36.6666 28.3335V11.6668C36.6666 11.2248 36.491 10.8009 36.1784 10.4883C35.8659 10.1758 35.4419 10.0002 34.9999 10.0002ZM29.9999 25.0002V8.3335C29.9999 7.00741 29.4731 5.73564 28.5355 4.79796C27.5978 3.86028 26.326 3.3335 24.9999 3.3335H8.33325C7.00717 3.3335 5.7354 3.86028 4.79772 4.79796C3.86004 5.73564 3.33325 7.00741 3.33325 8.3335V25.0002C3.33325 26.3262 3.86004 27.598 4.79772 28.5357C5.7354 29.4734 7.00717 30.0002 8.33325 30.0002H24.9999C26.326 30.0002 27.5978 29.4734 28.5355 28.5357C29.4731 27.598 29.9999 26.3262 29.9999 25.0002ZM16.6666 6.66683H19.9999V14.7668L19.3999 14.2668C19.1004 14.0174 18.723 13.8808 18.3333 13.8808C17.9435 13.8808 17.5661 14.0174 17.2666 14.2668L16.6666 14.7668V6.66683ZM6.66659 25.0002V8.3335C6.66659 7.89147 6.84218 7.46755 7.15474 7.15498C7.4673 6.84242 7.89122 6.66683 8.33325 6.66683H13.3333V18.3335C13.3332 18.6521 13.4245 18.964 13.5963 19.2324C13.7682 19.5007 14.0133 19.7141 14.3027 19.8474C14.592 19.9807 14.9136 20.0283 15.2291 19.9844C15.5447 19.9406 15.8411 19.8073 16.0833 19.6002L18.3333 17.7168L20.5833 19.6002C20.8852 19.8583 21.2693 20.0002 21.6666 20.0002C21.9077 19.9985 22.1459 19.9474 22.3666 19.8502C22.6559 19.7163 22.9007 19.5022 23.0721 19.2334C23.2434 18.9646 23.334 18.6523 23.3333 18.3335V6.66683H24.9999C25.4419 6.66683 25.8659 6.84242 26.1784 7.15498C26.491 7.46755 26.6666 7.89147 26.6666 8.3335V25.0002C26.6666 25.4422 26.491 25.8661 26.1784 26.1787C25.8659 26.4912 25.4419 26.6668 24.9999 26.6668H8.33325C7.89122 26.6668 7.4673 26.4912 7.15474 26.1787C6.84218 25.8661 6.66659 25.4422 6.66659 25.0002Z"/>
</mask>
<path d="M33.3333 28.3335H45.3333H33.3333ZM28.3333 33.3335V45.3335V33.3335ZM29.9999 25.0002H41.9999H29.9999ZM29.9999 8.3335H41.9999H29.9999ZM8.33325 3.3335V-8.6665V3.3335ZM3.33325 8.3335H-8.66675H3.33325ZM3.33325 25.0002H-8.66675H3.33325ZM8.33325 30.0002V42.0002V30.0002ZM24.9999 30.0002V42.0002V30.0002ZM16.6666 6.66683V-5.33317C10.0392 -5.33317 4.66658 0.0394123 4.66658 6.66683H16.6666ZM19.9999 6.66683H31.9999C31.9999 0.0394123 26.6273 -5.33317 19.9999 -5.33317V6.66683ZM19.9999 14.7668L12.3177 23.9855C15.8947 26.9663 20.8732 27.6089 25.0898 25.6339C29.3064 23.6589 31.9999 19.423 31.9999 14.7668H19.9999ZM19.3999 14.2668L27.0821 5.04818L27.0799 5.04633L19.3999 14.2668ZM17.2666 14.2668L9.58658 5.04633L9.58438 5.04817L17.2666 14.2668ZM16.6666 14.7668H4.66658C4.66658 19.423 7.3601 23.6589 11.5767 25.6339C15.7933 27.6089 20.7718 26.9663 24.3488 23.9855L16.6666 14.7668ZM8.33325 6.66683V18.6668V6.66683ZM13.3333 6.66683H25.3333C25.3333 0.0394123 19.9607 -5.33317 13.3333 -5.33317V6.66683ZM13.3333 18.3335L25.3333 18.3343V18.3335H13.3333ZM16.0833 19.6002L8.38095 10.3983C8.34823 10.4257 8.31567 10.4532 8.28325 10.481L16.0833 19.6002ZM18.3333 17.7168L26.0356 8.51496C21.5784 4.78412 15.0881 4.78412 10.6309 8.51496L18.3333 17.7168ZM20.5833 19.6002L28.3823 10.4802C28.3502 10.4527 28.318 10.4254 28.2856 10.3983L20.5833 19.6002ZM21.6666 20.0002L21.6675 32.0002C21.6955 32.0002 21.7235 32.0001 21.7514 31.9999L21.6666 20.0002ZM22.3666 19.8502L27.2061 30.831C27.2732 30.8014 27.34 30.7713 27.4065 30.7405L22.3666 19.8502ZM23.3333 18.3335H11.3333C11.3333 18.3434 11.3333 18.3533 11.3333 18.3632L23.3333 18.3335ZM23.3333 6.66683V-5.33317C16.7058 -5.33317 11.3333 0.0394123 11.3333 6.66683H23.3333ZM34.9999 -1.99984C31.3753 -1.99984 27.8991 -0.559961 25.3361 2.00304L42.3067 18.9736C40.3688 20.9115 37.7405 22.0002 34.9999 22.0002V-1.99984ZM25.3361 2.00304C22.7731 4.56606 21.3333 8.04223 21.3333 11.6668H45.3333C45.3333 14.4074 44.2446 17.0357 42.3067 18.9736L25.3361 2.00304ZM21.3333 11.6668V28.3335H45.3333V11.6668H21.3333ZM21.3333 28.3335C21.3333 26.477 22.0707 24.6965 23.3835 23.3837L40.3541 40.3543C43.5422 37.1662 45.3333 32.8422 45.3333 28.3335H21.3333ZM23.3835 23.3837C24.6963 22.071 26.4767 21.3335 28.3333 21.3335V45.3335C32.8419 45.3335 37.166 43.5424 40.3541 40.3543L23.3835 23.3837ZM28.3333 21.3335H11.6666V45.3335H28.3333V21.3335ZM11.6666 21.3335C8.04199 21.3335 4.56581 22.7733 2.00279 25.3364L18.9734 42.3069C17.0355 44.2448 14.4071 45.3335 11.6666 45.3335V21.3335ZM2.00279 25.3364C-0.560205 27.8994 -2.00008 31.3755 -2.00008 35.0002H21.9999C21.9999 37.7407 20.9112 40.3691 18.9734 42.3069L2.00279 25.3364ZM-2.00008 35.0002C-2.00008 38.6248 -0.560194 42.101 2.00279 44.664L18.9734 27.6934C20.9112 29.6313 21.9999 32.2596 21.9999 35.0002H-2.00008ZM2.00279 44.664C4.56579 47.2269 8.04195 48.6668 11.6666 48.6668V24.6668C14.4072 24.6668 17.0355 25.7555 18.9734 27.6934L2.00279 44.664ZM11.6666 48.6668H28.3333V24.6668H11.6666V48.6668ZM28.3333 48.6668C33.726 48.6668 38.8979 46.5246 42.7111 42.7113L25.7405 25.7408C26.4282 25.0531 27.3608 24.6668 28.3333 24.6668V48.6668ZM42.7111 42.7113C46.5243 38.8981 48.6666 33.7262 48.6666 28.3335H24.6666C24.6666 27.361 25.0529 26.4284 25.7405 25.7408L42.7111 42.7113ZM48.6666 28.3335V11.6668H24.6666V28.3335H48.6666ZM48.6666 11.6668C48.6666 8.0422 47.2267 4.56603 44.6637 2.00304L27.6931 18.9736C25.7553 17.0357 24.6666 14.4074 24.6666 11.6668H48.6666ZM44.6637 2.00304C42.1007 -0.55995 38.6246 -1.99984 34.9999 -1.99984V22.0002C32.2593 22.0002 29.631 20.9115 27.6931 18.9736L44.6637 2.00304ZM41.9999 25.0002V8.3335H17.9999V25.0002H41.9999ZM41.9999 8.3335C41.9999 3.82482 40.2089 -0.499201 37.0207 -3.68732L20.0502 13.2832C18.7374 11.9705 17.9999 10.19 17.9999 8.3335H41.9999ZM37.0207 -3.68732C33.8326 -6.87544 29.5086 -8.6665 24.9999 -8.6665V15.3335C23.1434 15.3335 21.3629 14.596 20.0502 13.2832L37.0207 -3.68732ZM24.9999 -8.6665H8.33325V15.3335H24.9999V-8.6665ZM8.33325 -8.6665C3.82457 -8.6665 -0.499446 -6.87544 -3.68756 -3.68732L13.283 13.2832C11.9702 14.596 10.1898 15.3335 8.33325 15.3335V-8.6665ZM-3.68756 -3.68732C-6.87568 -0.499202 -8.66675 3.82481 -8.66675 8.3335H15.3333C15.3333 10.19 14.5958 11.9705 13.283 13.2832L-3.68756 -3.68732ZM-8.66675 8.3335V25.0002H15.3333V8.3335H-8.66675ZM-8.66675 25.0002C-8.66675 29.5088 -6.87568 33.8329 -3.68756 37.021L13.283 20.0504C14.5958 21.3632 15.3333 23.1436 15.3333 25.0002H-8.66675ZM-3.68756 37.021C-0.499445 40.2091 3.82457 42.0002 8.33325 42.0002V18.0002C10.1898 18.0002 11.9702 18.7377 13.283 20.0504L-3.68756 37.021ZM8.33325 42.0002H24.9999V18.0002H8.33325V42.0002ZM24.9999 42.0002C29.5086 42.0002 33.8326 40.2091 37.0207 37.021L20.0502 20.0504C21.3629 18.7377 23.1434 18.0002 24.9999 18.0002V42.0002ZM37.0207 37.021C40.2089 33.8329 41.9999 29.5088 41.9999 25.0002H17.9999C17.9999 23.1436 18.7374 21.3632 20.0502 20.0504L37.0207 37.021ZM16.6666 18.6668H19.9999V-5.33317H16.6666V18.6668ZM7.99992 6.66683V14.7668H31.9999V6.66683H7.99992ZM27.6821 5.54818L27.0821 5.04818L11.7177 23.4855L12.3177 23.9855L27.6821 5.54818ZM27.0799 5.04633C24.6242 3.00089 21.5293 1.88079 18.3333 1.88079V25.8808C15.9168 25.8808 13.5767 25.0339 11.7199 23.4873L27.0799 5.04633ZM18.3333 1.88079C15.1372 1.88079 12.0423 3.00089 9.58658 5.04633L24.9466 23.4873C23.0898 25.0339 20.7498 25.8808 18.3333 25.8808V1.88079ZM9.58438 5.04817L8.98438 5.54817L24.3488 23.9855L24.9488 23.4855L9.58438 5.04817ZM28.6666 14.7668V6.66683H4.66658V14.7668H28.6666ZM18.6666 25.0002V8.3335H-5.33342V25.0002H18.6666ZM18.6666 8.3335C18.6666 11.0741 17.5779 13.7024 15.64 15.6403L-1.33054 -1.3303C-3.89353 1.2327 -5.33342 4.70887 -5.33342 8.3335H18.6666ZM15.64 15.6403C13.7022 17.5781 11.0738 18.6668 8.33325 18.6668V-5.33317C4.70862 -5.33317 1.23245 -3.89329 -1.33054 -1.3303L15.64 15.6403ZM8.33325 18.6668H13.3333V-5.33317H8.33325V18.6668ZM1.33325 6.66683V18.3335H25.3333V6.66683H1.33325ZM1.33325 18.3327C1.33308 20.9453 2.08176 23.5032 3.49059 25.7034L23.7021 12.7614C24.7673 14.4249 25.3334 16.3589 25.3333 18.3343L1.33325 18.3327ZM3.49059 25.7034C4.89941 27.9035 6.90935 29.6538 9.28233 30.7468L19.323 8.94803C21.1172 9.77446 22.6369 11.0978 23.7021 12.7614L3.49059 25.7034ZM9.28233 30.7468C11.6553 31.8398 14.2919 32.2297 16.8796 31.8704L13.5787 8.09847C15.5353 7.82679 17.5287 8.1216 19.323 8.94803L9.28233 30.7468ZM16.8796 31.8704C19.4673 31.5111 21.8978 30.4176 23.8833 28.7194L8.28325 10.481C9.78443 9.19694 11.6222 8.37015 13.5787 8.09847L16.8796 31.8704ZM23.7856 28.802L26.0356 26.9187L10.6309 8.51496L8.38095 10.3983L23.7856 28.802ZM10.6309 26.9187L12.8809 28.802L28.2856 10.3983L26.0356 8.51496L10.6309 26.9187ZM12.7842 28.7202C15.2598 30.8372 18.4101 32.0004 21.6675 32.0002L21.6657 8.00016C24.1286 7.99997 26.5105 8.87947 28.3823 10.4802L12.7842 28.7202ZM21.7514 31.9999C23.6304 31.9866 25.4867 31.5888 27.2061 30.831L17.527 8.86933C18.8052 8.30602 20.1851 8.01034 21.5817 8.00046L21.7514 31.9999ZM27.4065 30.7405C29.7788 29.6426 31.7865 27.8874 33.1914 25.6831L12.9527 12.7837C14.015 11.117 15.533 9.78995 17.3266 8.95986L27.4065 30.7405ZM33.1914 25.6831C34.5964 23.4788 35.3397 20.9178 35.3332 18.3038L11.3333 18.3632C11.3284 16.3867 11.8904 14.4504 12.9527 12.7837L33.1914 25.6831ZM35.3333 18.3335V6.66683H11.3333V18.3335H35.3333ZM23.3333 18.6668H24.9999V-5.33317H23.3333V18.6668ZM24.9999 18.6668C22.2593 18.6668 19.631 17.5781 17.6931 15.6403L34.6637 -1.3303C32.1007 -3.89329 28.6246 -5.33317 24.9999 -5.33317V18.6668ZM17.6931 15.6403C15.7553 13.7024 14.6666 11.0741 14.6666 8.3335H38.6666C38.6666 4.70887 37.2267 1.2327 34.6637 -1.3303L17.6931 15.6403ZM14.6666 8.3335V25.0002H38.6666V8.3335H14.6666ZM14.6666 25.0002C14.6666 22.2596 15.7553 19.6313 17.6931 17.6934L34.6637 34.664C37.2267 32.101 38.6666 28.6248 38.6666 25.0002H14.6666ZM17.6931 17.6934C19.631 15.7555 22.2593 14.6668 24.9999 14.6668V38.6668C28.6245 38.6668 32.1007 37.2269 34.6637 34.664L17.6931 17.6934ZM24.9999 14.6668H8.33325V38.6668H24.9999V14.6668ZM8.33325 14.6668C11.0738 14.6668 13.7021 15.7555 15.64 17.6934L-1.33054 34.664C1.23246 37.227 4.70863 38.6668 8.33325 38.6668V14.6668ZM15.64 17.6934C17.5779 19.6313 18.6666 22.2596 18.6666 25.0002H-5.33342C-5.33342 28.6248 -3.89353 32.101 -1.33054 34.664L15.64 17.6934Z" fill="#5E3AEE" mask="url(#path-1-inside-1_748_422)"/>
</svg>
