<svg width="40" height="40" viewBox="0 0 40 40" fill="none" xmlns="http://www.w3.org/2000/svg">
<path d="M15.7647 24.2353H23.1341V22.1176H15.7647V24.2353ZM15.7647 17.8824H30.5078V15.7647H15.7647V17.8824ZM15.7647 11.5294H30.5078V9.41176H15.7647V11.5294ZM11.7729 31.6471C10.7988 31.6471 9.98565 31.3209 9.33341 30.6687C8.67976 30.0151 8.35294 29.2012 8.35294 28.2271V5.42C8.35294 4.44588 8.67976 3.63271 9.33341 2.98047C9.98565 2.32682 10.7988 2 11.7729 2H34.58C35.5541 2 36.3673 2.32682 37.0195 2.98047C37.6732 3.63271 38 4.44588 38 5.42V28.2271C38 29.2012 37.6739 30.0151 37.0216 30.6687C36.368 31.3209 35.5541 31.6471 34.58 31.6471H11.7729ZM11.7729 29.5294H34.58C34.9047 29.5294 35.2033 29.3939 35.4758 29.1228C35.7468 28.8504 35.8824 28.5518 35.8824 28.2271V5.42C35.8824 5.09529 35.7468 4.79671 35.4758 4.52424C35.2033 4.25318 34.9047 4.11765 34.58 4.11765H11.7729C11.4482 4.11765 11.1496 4.25318 10.8772 4.52424C10.6061 4.79671 10.4706 5.09529 10.4706 5.42V28.2271C10.4706 28.5518 10.6061 28.8504 10.8772 29.1228C11.1496 29.3939 11.4482 29.5294 11.7729 29.5294ZM5.42 38C4.44588 38 3.63271 37.6739 2.98047 37.0216C2.32682 36.368 2 35.5541 2 34.58V9.65529H4.11765V34.58C4.11765 34.9047 4.25318 35.2033 4.52424 35.4758C4.79671 35.7468 5.09529 35.8824 5.42 35.8824H30.3447V38H5.42Z" fill="#5E3AEE"/>
</svg>
