<svg width="40" height="40" viewBox="0 0 40 40" fill="none" xmlns="http://www.w3.org/2000/svg">
<path d="M15 21.6668H25M15 28.3335H20M6.66663 6.66683V33.3335C6.66663 34.2176 7.01782 35.0654 7.64294 35.6905C8.26806 36.3156 9.1159 36.6668 9.99996 36.6668H30C30.884 36.6668 31.7319 36.3156 32.357 35.6905C32.9821 35.0654 33.3333 34.2176 33.3333 33.3335V13.9035C33.3332 13.4594 33.2445 13.0198 33.0722 12.6106C32.8999 12.2013 32.6475 11.8306 32.33 11.5202L24.93 4.2835C24.3072 3.67459 23.4709 3.3336 22.6 3.3335H9.99996C9.1159 3.3335 8.26806 3.68469 7.64294 4.30981C7.01782 4.93493 6.66663 5.78277 6.66663 6.66683Z" stroke="#5E3AEE" stroke-width="2.5" stroke-linecap="round" stroke-linejoin="round"/>
<path d="M23.3333 3.3335V10.0002C23.3333 10.8842 23.6844 11.7321 24.3096 12.3572C24.9347 12.9823 25.7825 13.3335 26.6666 13.3335H33.3333" stroke="#5E3AEE" stroke-width="2.5" stroke-linejoin="round"/>
</svg>
