<svg width="40" height="40" viewBox="0 0 40 40" fill="none" xmlns="http://www.w3.org/2000/svg">
<path d="M2.99976 31.6663V29.9997C2.99976 26.9055 4.22892 23.938 6.41684 21.7501C8.60477 19.5622 11.5722 18.333 14.6664 18.333" stroke="#5E3AEE" stroke-width="3" stroke-linecap="round" stroke-linejoin="round"/>
<path d="M26.0064 18.856C26.2591 18.5787 26.5669 18.3571 26.9102 18.2055C27.2534 18.0539 27.6245 17.9756 27.9997 17.9756C28.375 17.9756 28.7461 18.0539 29.0893 18.2055C29.4325 18.3571 29.7404 18.5787 29.9931 18.856C30.5347 19.4494 31.3097 19.771 32.1131 19.7327C32.4881 19.7151 32.8626 19.776 33.2127 19.9115C33.5628 20.047 33.8807 20.2541 34.1462 20.5196C34.4116 20.785 34.6187 21.103 34.7542 21.4531C34.8897 21.8032 34.9507 22.1777 34.9331 22.5527C34.8947 23.3544 35.2164 24.131 35.8097 24.6727C36.9847 25.7427 36.9847 27.5894 35.8097 28.6594C35.2164 29.201 34.8947 29.976 34.9331 30.7794C34.9507 31.1544 34.8897 31.5289 34.7542 31.879C34.6187 32.2291 34.4116 32.547 34.1462 32.8125C33.8807 33.0779 33.5628 33.285 33.2127 33.4205C32.8626 33.556 32.4881 33.617 32.1131 33.5994C31.717 33.5806 31.3216 33.6495 30.9552 33.801C30.5888 33.9526 30.2602 34.183 29.9931 34.476C29.7404 34.7534 29.4325 34.975 29.0893 35.1266C28.7461 35.2782 28.375 35.3565 27.9997 35.3565C27.6245 35.3565 27.2534 35.2782 26.9102 35.1266C26.5669 34.975 26.2591 34.7534 26.0064 34.476C25.7392 34.183 25.4107 33.9526 25.0443 33.801C24.6778 33.6495 24.2825 33.5806 23.8864 33.5994C23.5114 33.617 23.1369 33.556 22.7868 33.4205C22.4367 33.285 22.1187 33.0779 21.8533 32.8125C21.5878 32.547 21.3807 32.2291 21.2452 31.879C21.1097 31.5289 21.0488 31.1544 21.0664 30.7794C21.0849 30.3832 21.0158 29.9877 20.864 29.6213C20.7122 29.2548 20.4814 28.9264 20.1881 28.6594C19.9107 28.4067 19.6891 28.0988 19.5375 27.7556C19.3859 27.4124 19.3076 27.0413 19.3076 26.666C19.3076 26.2908 19.3859 25.9197 19.5375 25.5765C19.6891 25.2332 19.9107 24.9254 20.1881 24.6727C20.7831 24.131 21.1047 23.356 21.0664 22.5527C21.0488 22.1777 21.1097 21.8032 21.2452 21.4531C21.3807 21.103 21.5878 20.785 21.8533 20.5196C22.1187 20.2541 22.4367 20.047 22.7868 19.9115C23.1369 19.776 23.5114 19.7151 23.8864 19.7327C24.6881 19.771 25.4647 19.4494 26.0064 18.8544V18.856Z" stroke="#5E3AEE" stroke-width="3" stroke-linejoin="bevel"/>
<path d="M25.2731 26.6662L27.0898 28.4828L30.7264 24.8495M14.6664 18.3328C16.4345 18.3328 18.1302 17.6305 19.3805 16.3802C20.6307 15.13 21.3331 13.4343 21.3331 11.6662C21.3331 9.89807 20.6307 8.20238 19.3805 6.95213C18.1302 5.70189 16.4345 4.99951 14.6664 4.99951C12.8983 4.99951 11.2026 5.70189 9.95238 6.95213C8.70213 8.20238 7.99976 9.89807 7.99976 11.6662C7.99976 13.4343 8.70213 15.13 9.95238 16.3802C11.2026 17.6305 12.8983 18.3328 14.6664 18.3328Z" stroke="#5E3AEE" stroke-width="3" stroke-linecap="round" stroke-linejoin="round"/>
</svg>
