<svg width="40" height="40" viewBox="0 0 40 40" fill="none" xmlns="http://www.w3.org/2000/svg">
<path d="M1.15838 19.8288C1.15745 23.147 2.02837 26.387 3.6844 29.2427L1 39L11.0303 36.3818C13.8045 37.8853 16.9129 38.6731 20.0716 38.6733H20.0799C30.5073 38.6733 38.9955 30.2262 39 19.8436C39.002 14.8125 37.0357 10.0816 33.4631 6.52232C29.8912 2.96333 25.1407 1.0023 20.0791 1C9.65042 1 1.16284 9.44666 1.15853 19.8288" fill="url(#paint0_linear_767_395)"/>
<path d="M0.167188 19.8199C0.166094 23.3132 1.08281 26.7234 2.82562 29.7293L0 40L10.558 37.2441C13.467 38.8231 16.7423 39.6556 20.0752 39.6568H20.0837C31.06 39.6568 39.9953 30.7642 40 19.8358C40.0019 14.5395 37.9319 9.5592 34.1719 5.81271C30.4114 2.06668 25.4114 0.00217774 20.0837 0C9.10562 0 0.171563 8.89141 0.167188 19.8199ZM6.45484 29.2116L6.06062 28.5886C4.40344 25.9654 3.52875 22.934 3.53 19.8212C3.53344 10.7377 10.9591 3.3475 20.09 3.3475C24.5119 3.34937 28.6675 5.06543 31.7931 8.17898C34.9186 11.2928 36.6384 15.4321 36.6373 19.8346C36.6333 28.9181 29.2075 36.3092 20.0837 36.3092H20.0772C17.1064 36.3076 14.1928 35.5134 11.6519 34.0125L11.0472 33.6555L4.78188 35.2908L6.45484 29.2116Z" fill="url(#paint1_linear_767_395)"/>
<path d="M15.0847 11.8362C14.7161 11.0411 14.3281 11.0251 13.9775 11.0111C13.6905 10.9991 13.3623 11 13.0345 11C12.7063 11 12.1731 11.1198 11.7224 11.5973C11.2713 12.0753 10 13.2304 10 15.5797C10 17.9292 11.7634 20.1996 12.0092 20.5185C12.2553 20.8368 15.4134 25.8122 20.4149 27.7262C24.5717 29.3169 25.4176 29.0005 26.3198 28.9208C27.2221 28.8413 29.2312 27.766 29.6411 26.6509C30.0514 25.536 30.0514 24.5804 29.9284 24.3806C29.8054 24.1817 29.4772 24.0622 28.9851 23.8235C28.4929 23.5846 26.0737 22.4294 25.6227 22.27C25.1715 22.1108 24.8435 22.0313 24.5153 22.5095C24.1872 22.9869 23.2448 24.0622 22.9576 24.3806C22.6707 24.6998 22.3835 24.7396 21.8915 24.5007C21.3991 24.2611 19.8144 23.7575 17.9342 22.1309C16.4714 20.8652 15.4838 19.3021 15.1967 18.824C14.9097 18.3466 15.166 18.0878 15.4127 17.8499C15.6338 17.6359 15.905 17.2923 16.1513 17.0135C16.3966 16.7347 16.4785 16.5357 16.6426 16.2172C16.8068 15.8985 16.7246 15.6196 16.6018 15.3808C16.4785 15.1419 15.5223 12.7803 15.0847 11.8362Z" fill="white"/>
<defs>
<linearGradient id="paint0_linear_767_395" x1="1901" y1="3801" x2="1901" y2="1" gradientUnits="userSpaceOnUse">
<stop stop-color="#1FAF38"/>
<stop offset="1" stop-color="#60D669"/>
</linearGradient>
<linearGradient id="paint1_linear_767_395" x1="2000" y1="4000" x2="2000" y2="0" gradientUnits="userSpaceOnUse">
<stop stop-color="#F9F9F9"/>
<stop offset="1" stop-color="white"/>
</linearGradient>
</defs>
</svg>
